<svg width="506" height="101" viewBox="0 0 506 101" fill="none" xmlns="http://www.w3.org/2000/svg">
<g clip-path="url(#clip0_736_20469)">
<path d="M0 77.5813V0.332947H7.32529V33.7406H52.4978V0.332947H59.7121V77.5813H52.4978V39.956H7.32529V77.5813H0Z" fill="#072723"/>
<path d="M78.8399 101L88.8289 76.1385L67.186 24.1956H74.7333L88.9399 59.3791C89.7538 61.5249 90.9007 64.3736 92.3805 67.9253C92.6025 67.4073 92.8245 66.8339 93.0465 66.2049C93.2684 65.576 93.4904 65.0026 93.7124 64.4846C94.1564 63.5227 94.5448 62.6163 94.8778 61.7654C95.2108 60.9145 95.5252 60.0821 95.8212 59.2681L109.14 24.1956H116.354L86.0542 101H78.8399Z" fill="#072723"/>
<path d="M123.679 101V24.1956H130.56V33.9627C132.336 30.633 134.908 27.9138 138.274 25.805C141.641 23.6962 145.396 22.6418 149.54 22.6418C154.497 22.6418 158.807 23.8442 162.47 26.2489C166.132 28.6537 168.944 31.9834 170.905 36.2379C172.866 40.4925 173.846 45.3205 173.846 50.722C173.846 56.1235 172.829 61.081 170.794 65.3725C168.759 69.6641 165.892 73.0308 162.192 75.4725C158.493 77.9143 154.275 79.1352 149.54 79.1352C145.544 79.1352 141.863 78.1733 138.496 76.2495C135.13 74.3256 132.484 71.5139 130.56 67.8143V101H123.679ZM148.541 73.5857C152.166 73.5857 155.367 72.6238 158.141 70.7C160.916 68.7762 163.043 66.094 164.523 62.6533C166.003 59.2126 166.743 55.2355 166.743 50.722C166.743 46.2084 165.984 42.4718 164.468 39.0681C162.951 35.6645 160.823 33.0192 158.086 31.1324C155.348 29.2456 152.166 28.3022 148.541 28.3022C144.915 28.3022 141.826 29.2271 139.051 31.0769C136.276 32.9268 134.112 35.5535 132.558 38.9572C131.004 42.3608 130.228 46.2824 130.228 50.722C130.228 55.1616 131.004 59.2126 132.558 62.6533C134.112 66.094 136.258 68.7762 138.996 70.7C141.733 72.6238 144.915 73.5857 148.541 73.5857Z" fill="#072723"/>
<path d="M206.699 79.1352C201.667 79.1352 197.246 78.0253 193.435 75.8055C189.625 73.5857 186.665 70.3301 184.556 66.0385C182.447 61.7469 181.393 56.6044 181.393 50.611C181.393 45.2835 182.484 40.4925 184.667 36.2379C186.85 31.9834 189.828 28.6537 193.602 26.2489C197.375 23.8442 201.593 22.6418 206.255 22.6418C211.286 22.6418 215.578 23.7887 219.129 26.0824C222.681 28.3762 225.382 31.6134 227.232 35.794C229.081 39.9746 230.006 44.8396 230.006 50.389V51.8319H188.274C188.274 56.4194 189.051 60.341 190.605 63.5967C192.159 66.8524 194.342 69.3311 197.153 71.033C199.965 72.7348 203.184 73.5857 206.81 73.5857C211.101 73.5857 214.671 72.5683 217.52 70.5335C220.369 68.4987 222.126 65.4465 222.792 61.3769H229.673C229.155 64.7806 227.953 67.8143 226.066 70.478C224.179 73.1418 221.59 75.2506 218.297 76.8044C215.004 78.3583 211.138 79.1352 206.699 79.1352ZM222.681 46.6154C222.607 41.066 221.127 36.6264 218.241 33.2967C215.356 29.967 211.36 28.3022 206.255 28.3022C201.149 28.3022 197.209 30.0225 193.99 33.4632C190.772 36.9039 188.94 41.2879 188.496 46.6154H222.681Z" fill="#072723"/>
<path d="M240.661 77.5813V24.1956H247.542V34.8506C249.022 31.2989 251.335 28.3762 254.479 26.0824C257.624 23.7887 261.305 22.6418 265.523 22.6418C266.559 22.6418 267.557 22.7158 268.519 22.8638V29.5231C267.261 29.3751 266.152 29.3011 265.19 29.3011C261.638 29.3011 258.53 30.0965 255.867 31.6874C253.203 33.2782 251.15 35.5535 249.707 38.5132C248.264 41.4729 247.542 44.9136 247.542 48.8352V77.5813H240.661Z" fill="#072723"/>
<path d="M285.594 76.083L285.279 77.5813H263.507L263.821 76.083C269.833 75.4355 272.293 73.7152 273.255 69.2201L285.483 11.5984C286.777 5.69744 284.946 4.73553 278.731 6.0119L279.045 4.51356L292.345 0H293.844L279.138 69.2016C278.176 73.7152 279.785 75.417 285.575 76.0645L285.594 76.083Z" fill="#072723"/>
<path d="M310.122 76.083L309.808 77.5813H288.036L288.35 76.083C294.362 75.4355 296.822 73.7152 297.784 69.2202L305.183 34.1291C306.478 28.1172 304.758 27.2663 298.432 28.5427L298.746 27.0443L312.046 22.5308H313.545L303.667 69.2017C302.705 73.7152 304.314 75.417 310.104 76.0645L310.122 76.083ZM313.767 3.12622C316.671 3.12622 318.595 5.38299 318.28 8.26871C317.855 11.1729 315.283 13.3187 312.49 13.3187C309.494 13.3187 307.44 11.1729 307.884 8.26871C308.199 5.3645 310.788 3.12622 313.785 3.12622H313.767Z" fill="#072723"/>
<path d="M347.618 93.0643L353.593 65.465C349.838 73.6227 342.013 79.1906 333.745 79.1906C320.444 79.1906 314.21 66.6304 318.188 47.8548C320.981 34.2216 333.208 22.5308 347.692 22.5308C354.351 22.5308 359.808 25.5275 362.065 29.93L367.115 22.5308H368.614L353.519 93.0273C352.446 97.8553 356.312 98.8172 360.178 99.4646L359.864 100.963H334.873L335.187 99.4646C342.383 98.8172 346.564 97.8553 347.637 93.0273L347.618 93.0643ZM337.296 75.232C344.159 75.232 351.022 69.3311 354.24 62.2463L358.754 41.1029C359.938 33.4817 356.294 25.546 345.879 25.546C335.465 25.546 327.326 34.5546 324.643 47.7438C321.203 63.9482 326.031 75.2135 337.296 75.2135V75.232Z" fill="#072723"/>
<path d="M443.05 76.083L442.736 77.5813H420.963L421.278 76.083C427.29 75.4355 429.75 73.7152 430.712 69.2202L438.111 34.1291C439.406 28.1172 437.686 27.2663 431.359 28.5427L431.674 27.0443L444.974 22.5308H446.472L436.594 69.2017C435.632 73.7152 437.242 75.417 443.032 76.0645L443.05 76.083ZM446.694 3.12622C449.599 3.12622 451.522 5.38299 451.208 8.26871C450.782 11.1729 448.211 13.3187 445.418 13.3187C442.421 13.3187 440.368 11.1729 440.812 8.26871C441.126 5.3645 443.716 3.12622 446.713 3.12622H446.694Z" fill="#072723"/>
<path d="M412.14 69.1092L417.079 45.5425L421.944 22.5678H420.445L407.145 27.0814L406.831 28.5797C413.046 27.2848 414.877 28.1542 413.583 34.1662L407.256 64.0962C400.282 70.6445 395.343 74.5106 389.331 74.5106C381.932 74.5106 378.066 69.4606 379.897 60.785L388.055 22.5863H386.557L373.146 27.0999L372.831 28.5982C379.157 27.3033 380.878 28.1728 379.694 34.1847L373.904 61.6544C371.647 71.8469 376.808 79.2462 386.353 79.2462C392.68 79.2462 398.248 75.713 406.812 66.5194L406.405 68.4617V68.5542H406.387L404.463 77.6553H418.281L418.596 76.0275C412.806 75.3801 411.196 73.6597 412.158 69.1647L412.14 69.1092Z" fill="#072723"/>
<path d="M501.06 20.5515L505.389 0.0184937H503.891L490.59 4.53205L490.276 6.0304C496.491 4.73553 498.323 5.71592 497.028 11.6168L493.273 29.0976C490.905 25.1205 485.762 22.5493 479.75 22.5493C465.155 22.5493 453.039 34.1291 449.931 48.8351C446.176 66.6489 452.299 79.1906 465.71 79.1906C474.072 79.1906 482.026 73.5117 485.67 65.354L484.708 70.034L483.099 77.5813L496.917 77.4703L497.231 75.972C491.441 75.3245 489.832 73.6042 490.794 69.1091L501.042 20.5515H501.06ZM486.299 62.1353C483.08 69.3311 476.217 75.232 469.243 75.232C457.978 75.232 453.15 63.9667 456.369 48.7242C459.365 34.5546 467.949 25.546 477.938 25.546C488.593 25.546 492.144 33.9996 490.738 41.6949L490.239 44.0256L486.317 62.1353H486.299Z" fill="#072723"/>
</g>
<defs>
<clipPath id="clip0_736_20469">
<rect width="506" height="101" fill="white"/>
</clipPath>
</defs>
</svg>
