<svg xmlns="http://www.w3.org/2000/svg" width="575" height="575" viewBox="0 0 575 575">
<g>
<path d="M 105.71 367.17 C97.56,358.96 91.00,351.54 91.00,350.53 C91.00,348.77 94.61,344.86 127.07,311.50 C135.10,303.25 142.87,294.88 144.33,292.91 C148.00,287.97 147.94,282.59 144.16,277.40 C142.60,275.26 130.00,261.88 116.16,247.68 C102.32,233.47 91.00,221.36 91.00,220.75 C91.00,220.15 97.62,212.98 105.71,204.83 C114.89,195.57 119.08,190.46 123.56,190.19 C128.13,189.91 133.01,194.64 143.80,205.11 C145.47,206.74 147.29,208.51 149.28,210.42 C194.78,254.19 194.43,253.83 198.46,262.10 C205.66,276.90 205.63,293.67 198.39,308.85 C195.12,315.70 192.90,318.34 177.12,334.05 C167.43,343.71 152.42,358.44 143.76,366.80 C142.56,367.97 141.43,369.06 140.37,370.09 C132.14,378.10 128.08,382.04 124.09,381.97 C119.70,381.89 115.40,376.94 105.71,367.17 ZM 441.97 380.34 C440.61,379.43 435.67,375.04 431.00,370.59 C373.95,316.30 371.87,314.00 367.89,300.63 C366.16,294.83 365.87,291.73 366.23,283.04 C366.73,271.06 368.80,264.42 374.83,255.58 C377.96,250.98 431.90,198.88 440.39,192.25 C446.17,187.74 447.96,188.64 463.25,203.75 C470.90,211.31 477.59,218.30 478.13,219.28 C478.94,220.77 475.33,224.94 455.80,245.05 C424.29,277.48 423.00,279.03 423.00,284.35 C423.00,287.36 423.88,289.99 425.99,293.32 C427.63,295.91 440.01,309.21 453.49,322.87 C471.86,341.48 478.00,348.31 478.00,350.11 C478.00,353.22 449.53,382.00 446.46,382.00 C445.35,382.00 443.33,381.25 441.97,380.34 ZM 259.00 494.00 L 311.00 494.00 L 311.00 555.00 L 259.00 555.00 Z" fill="oklch(0.2853 0.0498 194.2174)"/>
<path d="M 281.50 455.12 C279.85,454.09 273.58,448.23 267.57,442.09 L 256.64 430.93 L 262.06 425.22 C281.26,404.99 281.25,405.00 285.09,405.00 C288.46,405.00 289.63,405.96 301.05,418.09 L 313.37 431.19 L 300.36 444.09 C293.20,451.19 286.71,457.00 285.92,457.00 C285.14,456.99 283.15,456.15 281.50,455.12 ZM 207.00 422.70 C203.78,420.98 180.57,398.19 179.11,395.32 C178.50,394.11 178.00,391.52 178.00,389.55 C178.00,386.21 180.13,383.74 209.09,353.49 C239.75,321.46 240.29,320.96 248.34,317.16 C260.99,311.18 269.10,309.53 285.50,309.59 C301.68,309.65 309.12,311.17 321.50,316.96 C329.29,320.60 330.29,321.51 359.59,351.60 C376.14,368.59 390.20,383.48 390.84,384.68 C391.48,385.89 392.00,388.33 392.00,390.11 C392.00,392.94 390.16,395.20 377.30,408.17 C369.21,416.32 361.84,423.23 360.93,423.52 C357.65,424.56 353.67,421.84 345.17,412.74 C325.47,391.65 310.26,376.71 306.50,374.76 C293.68,368.13 273.61,368.54 262.50,375.65 C260.30,377.06 248.60,388.28 236.50,400.59 C222.86,414.47 213.55,423.18 212.00,423.51 C210.62,423.80 208.38,423.44 207.00,422.70 ZM 274.81 261.00 C265.59,259.87 257.91,257.54 248.50,253.02 C241.64,249.72 238.92,247.56 229.41,237.84 C202.46,210.30 179.43,185.70 178.61,183.58 C176.83,179.00 178.92,175.74 192.37,162.18 C204.44,150.01 205.95,148.82 209.90,148.29 L 214.23 147.71 L 235.37 169.17 C246.99,180.97 258.49,192.07 260.91,193.82 C273.59,203.00 296.72,203.31 308.78,194.46 C310.83,192.96 322.17,181.88 334.00,169.84 C354.01,149.47 355.74,147.96 359.00,147.99 C362.12,148.03 364.04,149.53 376.69,161.77 C391.05,175.67 392.88,178.35 391.58,183.52 C391.02,185.77 353.03,226.55 336.44,242.71 C322.47,256.32 297.37,263.77 274.81,261.00 ZM 283.00 165.69 C281.62,165.14 275.15,159.17 268.60,152.41 L 256.70 140.11 L 269.02 127.56 C279.54,116.84 281.80,115.00 284.44,115.00 C287.06,115.00 289.39,116.86 299.77,127.26 C306.49,134.01 312.00,139.90 312.00,140.36 C312.00,141.77 289.00,165.77 287.20,166.23 C286.26,166.48 284.38,166.23 283.00,165.69 ZM 259.67 77.33 C259.30,76.97 259.00,63.47 259.00,47.33 L 259.00 18.00 L 285.00 18.00 L 311.00 18.00 L 311.00 48.00 L 311.00 78.00 L 285.67 78.00 C271.73,78.00 260.03,77.70 259.67,77.33 Z" fill="oklch(0.2853 0.0498 184.2174)"/>
</g>
</svg>
