<svg xmlns="http://www.w3.org/2000/svg" width="480" height="480" viewBox="0 0 480 480">
<g>
<path d="M 104.50 433.58 C96.42,429.74 88.35,422.51 49.90,384.69 L 13.50 348.89 L 13.24 238.19 L 12.97 127.50 L 61.50 79.00 L 110.03 30.50 L 160.63 81.17 C188.45,109.04 211.05,132.36 210.83,133.00 C210.62,133.63 200.12,144.48 187.51,157.10 L 164.56 180.05 L 136.83 152.33 L 109.09 124.61 L 106.80 126.54 C105.53,127.61 99.89,133.04 94.25,138.60 L 84.00 148.72 L 84.00 237.69 L 84.00 326.65 L 97.02 339.58 L 110.03 352.50 L 109.77 394.23 L 109.50 435.96 L 104.50 433.58 ZM 364.00 394.72 L 364.00 353.47 L 376.49 341.01 L 388.98 328.55 L 389.24 292.03 L 389.50 255.50 L 425.75 291.41 L 462.00 327.33 L 462.00 338.46 L 462.00 349.59 L 426.25 385.09 C389.91,421.17 381.79,428.11 369.52,433.53 L 364.00 435.97 L 364.00 394.72 ZM 195.19 288.66 C171.44,264.84 152.00,244.93 152.00,244.41 C152.00,242.76 364.51,31.00 366.16,31.00 C367.02,31.00 388.94,52.40 414.86,78.55 L 462.00 126.10 L 462.00 181.80 L 462.00 237.49 L 425.50 201.00 L 389.00 164.51 L 389.00 156.34 L 389.00 148.18 L 377.27 136.59 C370.82,130.22 365.10,125.00 364.56,125.00 C363.48,125.00 243.00,245.05 243.00,246.11 C243.00,246.47 251.95,255.93 262.89,267.13 L 282.77 287.50 L 268.05 302.50 C259.96,310.75 249.97,320.75 245.86,324.73 L 238.39 331.96 L 195.19 288.66 Z" fill="rgb(253,253,253)"/>
</g>
</svg>
